<mxfile host="65bd71144e">
    <diagram name="第 1 页" id="_kCn5gWWrIlWfqqUU_DX">
        <mxGraphModel dx="1090" dy="731" grid="1" gridSize="10" guides="1" tooltips="1" connect="1" arrows="1" fold="1" page="1" pageScale="1" pageWidth="1100" pageHeight="1700" math="0" shadow="0">
            <root>
                <mxCell id="0"/>
                <mxCell id="1" parent="0"/>
                <mxCell id="3" value="&lt;p&gt;&lt;font style=&quot;font-size: 16px;&quot;&gt;老師&lt;/font&gt;&lt;/p&gt;" style="shape=umlLifeline;participant=umlActor;perimeter=lifelinePerimeter;whiteSpace=wrap;html=1;container=1;collapsible=0;recursiveResize=0;verticalAlign=top;spacingTop=36;outlineConnect=0;size=60;align=center;" parent="1" vertex="1">
                    <mxGeometry x="260" y="96.25" width="40" height="905" as="geometry"/>
                </mxCell>
                <mxCell id="63" value="" style="html=1;points=[];perimeter=orthogonalPerimeter;" vertex="1" parent="3">
                    <mxGeometry x="15" y="145" width="10" height="45" as="geometry"/>
                </mxCell>
                <mxCell id="76" value="" style="html=1;points=[];perimeter=orthogonalPerimeter;" vertex="1" parent="3">
                    <mxGeometry x="15" y="425" width="10" height="25" as="geometry"/>
                </mxCell>
                <mxCell id="87" value="" style="html=1;points=[];perimeter=orthogonalPerimeter;" vertex="1" parent="3">
                    <mxGeometry x="15" y="583.75" width="10" height="36.25" as="geometry"/>
                </mxCell>
                <mxCell id="6" value="輸入資料UI" style="shape=umlLifeline;participant=umlBoundary;perimeter=lifelinePerimeter;whiteSpace=wrap;html=1;container=1;collapsible=0;recursiveResize=0;verticalAlign=top;spacingTop=36;outlineConnect=0;fontSize=16;size=53;" parent="1" vertex="1">
                    <mxGeometry x="380" y="101.25" width="80" height="907.5" as="geometry"/>
                </mxCell>
                <mxCell id="18" value="" style="html=1;points=[];perimeter=orthogonalPerimeter;" parent="6" vertex="1">
                    <mxGeometry x="35" y="138.75" width="10" height="50" as="geometry"/>
                </mxCell>
                <mxCell id="62" value="" style="html=1;points=[];perimeter=orthogonalPerimeter;" vertex="1" parent="6">
                    <mxGeometry x="35" y="808.75" width="10" height="50" as="geometry"/>
                </mxCell>
                <mxCell id="75" value="" style="html=1;points=[];perimeter=orthogonalPerimeter;" vertex="1" parent="6">
                    <mxGeometry x="35" y="298.75" width="10" height="50" as="geometry"/>
                </mxCell>
                <mxCell id="7" value="確認結果UI" style="shape=umlLifeline;participant=umlBoundary;perimeter=lifelinePerimeter;whiteSpace=wrap;html=1;container=1;collapsible=0;recursiveResize=0;verticalAlign=top;spacingTop=36;outlineConnect=0;fontSize=16;size=54;" parent="1" vertex="1">
                    <mxGeometry x="510" y="101.25" width="220" height="900" as="geometry"/>
                </mxCell>
                <mxCell id="26" value="" style="html=1;points=[];perimeter=orthogonalPerimeter;" parent="7" vertex="1">
                    <mxGeometry x="35" y="250" width="10" height="50" as="geometry"/>
                </mxCell>
                <mxCell id="37" value="" style="html=1;points=[];perimeter=orthogonalPerimeter;" parent="7" vertex="1">
                    <mxGeometry x="35" y="420" width="10" height="330" as="geometry"/>
                </mxCell>
                <mxCell id="77" value="ref" style="shape=umlFrame;whiteSpace=wrap;html=1;" vertex="1" parent="7">
                    <mxGeometry x="-140" y="578.75" width="360" height="120" as="geometry"/>
                </mxCell>
                <mxCell id="88" value="6:修改建議備課資料()" style="html=1;verticalAlign=bottom;endArrow=classicThin;endFill=1;exitX=1.092;exitY=0.016;exitDx=0;exitDy=0;exitPerimeter=0;" edge="1" parent="7" source="87">
                    <mxGeometry x="-0.0044" width="80" relative="1" as="geometry">
                        <mxPoint x="-220" y="578.7500000000001" as="sourcePoint"/>
                        <mxPoint x="-140" y="578.75" as="targetPoint"/>
                        <mxPoint as="offset"/>
                    </mxGeometry>
                </mxCell>
                <mxCell id="8" value="Application Core" style="shape=umlLifeline;perimeter=lifelinePerimeter;whiteSpace=wrap;html=1;container=1;collapsible=0;recursiveResize=0;outlineConnect=0;" parent="1" vertex="1">
                    <mxGeometry x="610" y="111.25" width="160" height="890" as="geometry"/>
                </mxCell>
                <mxCell id="22" value="" style="html=1;points=[];perimeter=orthogonalPerimeter;" parent="8" vertex="1">
                    <mxGeometry x="75" y="180" width="10" height="60" as="geometry"/>
                </mxCell>
                <mxCell id="46" value="" style="html=1;points=[];perimeter=orthogonalPerimeter;" parent="8" vertex="1">
                    <mxGeometry x="75" y="455" width="10" height="70" as="geometry"/>
                </mxCell>
                <mxCell id="59" value="" style="html=1;points=[];perimeter=orthogonalPerimeter;" parent="8" vertex="1">
                    <mxGeometry x="75" y="740" width="10" height="60" as="geometry"/>
                </mxCell>
                <mxCell id="15" value="1:建立備課資料()" style="html=1;verticalAlign=bottom;endArrow=classicThin;endFill=1;entryX=0.068;entryY=-0.011;entryDx=0;entryDy=0;entryPerimeter=0;" parent="1" target="18" edge="1" source="3">
                    <mxGeometry x="-0.0044" width="80" relative="1" as="geometry">
                        <mxPoint x="310" y="239" as="sourcePoint"/>
                        <mxPoint x="378.36" y="239.99999999999997" as="targetPoint"/>
                        <mxPoint as="offset"/>
                    </mxGeometry>
                </mxCell>
                <mxCell id="21" value="2:傳送備課資料()" style="html=1;verticalAlign=bottom;endArrow=classicThin;endFill=1;exitX=0.64;exitY=0.988;exitDx=0;exitDy=0;exitPerimeter=0;" parent="1" source="18" target="22" edge="1">
                    <mxGeometry x="-0.0044" width="80" relative="1" as="geometry">
                        <mxPoint x="430.1600000000001" y="300" as="sourcePoint"/>
                        <mxPoint x="540" y="300" as="targetPoint"/>
                        <mxPoint as="offset"/>
                    </mxGeometry>
                </mxCell>
                <mxCell id="24" value="3:傳送備課結果()" style="html=1;verticalAlign=bottom;endArrow=open;dashed=1;endSize=8;exitX=0.521;exitY=1.052;exitDx=0;exitDy=0;exitPerimeter=0;" parent="1" source="22" target="26" edge="1">
                    <mxGeometry x="-0.0023" relative="1" as="geometry">
                        <mxPoint x="620" y="360" as="sourcePoint"/>
                        <mxPoint x="550" y="363" as="targetPoint"/>
                        <mxPoint as="offset"/>
                    </mxGeometry>
                </mxCell>
                <mxCell id="36" value="4:顯示備課結果()" style="html=1;verticalAlign=bottom;endArrow=open;dashed=1;endSize=8;exitX=-0.076;exitY=1.011;exitDx=0;exitDy=0;exitPerimeter=0;entryX=1.497;entryY=0.008;entryDx=0;entryDy=0;entryPerimeter=0;" parent="1" source="26" target="75" edge="1">
                    <mxGeometry x="-0.0023" relative="1" as="geometry">
                        <mxPoint x="480.21000000000004" y="410" as="sourcePoint"/>
                        <mxPoint x="410" y="401" as="targetPoint"/>
                        <mxPoint as="offset"/>
                    </mxGeometry>
                </mxCell>
                <mxCell id="38" value="5:確認備課資料()" style="html=1;verticalAlign=bottom;endArrow=classicThin;endFill=1;entryX=0.003;entryY=0.008;entryDx=0;entryDy=0;entryPerimeter=0;" parent="1" source="76" target="37" edge="1">
                    <mxGeometry x="-0.0044" width="80" relative="1" as="geometry">
                        <mxPoint x="320" y="524" as="sourcePoint"/>
                        <mxPoint x="379.84" y="520" as="targetPoint"/>
                        <mxPoint as="offset"/>
                    </mxGeometry>
                </mxCell>
                <mxCell id="47" value="6:傳送備課資料()" style="html=1;verticalAlign=bottom;endArrow=classicThin;endFill=1;entryX=0.231;entryY=0.005;entryDx=0;entryDy=0;entryPerimeter=0;exitX=1.116;exitY=0.134;exitDx=0;exitDy=0;exitPerimeter=0;" parent="1" source="37" target="46" edge="1">
                    <mxGeometry x="-0.0044" width="80" relative="1" as="geometry">
                        <mxPoint x="540" y="565" as="sourcePoint"/>
                        <mxPoint x="620" y="566" as="targetPoint"/>
                        <mxPoint as="offset"/>
                    </mxGeometry>
                </mxCell>
                <mxCell id="48" value="7:傳送備課結果()" style="html=1;verticalAlign=bottom;endArrow=open;dashed=1;endSize=8;exitX=0.052;exitY=0.992;exitDx=0;exitDy=0;exitPerimeter=0;entryX=1.497;entryY=0.348;entryDx=0;entryDy=0;entryPerimeter=0;" parent="1" source="46" target="37" edge="1">
                    <mxGeometry x="-0.0023" relative="1" as="geometry">
                        <mxPoint x="630.2099999999998" y="635.0000000000001" as="sourcePoint"/>
                        <mxPoint x="530" y="634" as="targetPoint"/>
                        <mxPoint as="offset"/>
                    </mxGeometry>
                </mxCell>
                <mxCell id="49" value="按下重新生成" style="text;html=1;align=center;verticalAlign=middle;resizable=0;points=[];autosize=1;strokeColor=none;fillColor=none;" parent="1" vertex="1">
                    <mxGeometry x="405" y="585" width="100" height="30" as="geometry"/>
                </mxCell>
                <mxCell id="50" value="7:確認備課結果()" style="html=1;verticalAlign=bottom;endArrow=classic;endFill=1;exitX=1.521;exitY=1.005;exitDx=0;exitDy=0;exitPerimeter=0;" parent="1" target="59" edge="1" source="37">
                    <mxGeometry x="-0.0023" relative="1" as="geometry">
                        <mxPoint x="521.1600000000001" y="850.9299999999998" as="sourcePoint"/>
                        <mxPoint x="649.5" y="850" as="targetPoint"/>
                        <mxPoint as="offset"/>
                    </mxGeometry>
                </mxCell>
                <mxCell id="60" value="8:顯示成功備課()" style="html=1;verticalAlign=bottom;endArrow=open;dashed=1;endSize=8;exitX=0.092;exitY=0.996;exitDx=0;exitDy=0;exitPerimeter=0;entryX=1.307;entryY=-0.002;entryDx=0;entryDy=0;entryPerimeter=0;" parent="1" source="59" target="62" edge="1">
                    <mxGeometry x="0.284" y="-10" relative="1" as="geometry">
                        <mxPoint x="610.1" y="910" as="sourcePoint"/>
                        <mxPoint x="410" y="910" as="targetPoint"/>
                        <mxPoint as="offset"/>
                    </mxGeometry>
                </mxCell>
                <mxCell id="43" value="loop" style="shape=umlFrame;whiteSpace=wrap;html=1;" parent="1" vertex="1">
                    <mxGeometry x="380" y="540" width="380" height="120" as="geometry"/>
                </mxCell>
                <mxCell id="85" value="修改建議資料" style="text;html=1;align=center;verticalAlign=middle;resizable=0;points=[];autosize=1;strokeColor=none;fillColor=none;" vertex="1" parent="1">
                    <mxGeometry x="400" y="721.25" width="100" height="30" as="geometry"/>
                </mxCell>
            </root>
        </mxGraphModel>
    </diagram>
</mxfile>